<svg aria-hidden="true" style="position: absolute; width: 0; height: 0; overflow: hidden;" version="1.1" xmlns="http://www.w3.org/2000/svg" xmlns:xlink="http://www.w3.org/1999/xlink">
<defs>
<symbol id="icon-mobile-screen" viewBox="0 0 21 32">
<path fill="#02897a" style="fill: var(--color1, #02897a)" d="M16.935 2.286h-13.299c-1.377 0-2.494 1.152-2.494 2.571v22.286c0 1.42 1.117 2.571 2.494 2.571h13.299c1.377 0 2.494-1.152 2.494-2.571v-22.286c0-1.42-1.117-2.571-2.494-2.571zM12.779 26.238c0 0.52-0.374 0.905-0.831 0.905h-3.371c-0.41 0-0.784-0.386-0.784-0.857s0.374-0.857 0.831-0.857h3.325c0.457 0 0.831 0.386 0.831 0.809zM16.104 22.857h-11.636v-17.143h11.636v17.143z"></path>
</symbol>
<symbol id="icon-twitter" viewBox="0 0 32 32">
<path fill="none" stroke="#02897a" style="stroke: var(--color1, #02897a)" stroke-linejoin="round" stroke-linecap="round" stroke-miterlimit="4" stroke-width="2.6667" d="M30.667 4.013c-1.277 0.901-2.691 1.589-4.187 2.040-0.803-0.923-1.87-1.578-3.057-1.875s-2.437-0.222-3.58 0.214c-1.143 0.436-2.125 1.213-2.812 2.226s-1.047 2.211-1.031 3.435v1.333c-2.343 0.061-4.665-0.459-6.759-1.513s-3.894-2.609-5.241-4.527c0 0-5.333 12 6.667 17.333-2.746 1.864-6.017 2.799-9.333 2.667 12 6.667 26.667 0 26.667-15.333-0.001-0.371-0.037-0.742-0.107-1.107 1.361-1.342 2.321-3.036 2.773-4.893v0z"></path>
</symbol>
<symbol id="icon-facebook" viewBox="0 0 32 32">
<path fill="none" stroke="#02897a" style="stroke: var(--color1, #02897a)" stroke-linejoin="round" stroke-linecap="round" stroke-miterlimit="4" stroke-width="2.6667" d="M24 2.667h-4c-1.768 0-3.464 0.702-4.714 1.953s-1.953 2.946-1.953 4.714v4h-4v5.333h4v10.667h5.333v-10.667h4l1.333-5.333h-5.333v-4c0-0.354 0.141-0.693 0.391-0.943s0.589-0.391 0.943-0.391h4v-5.333z"></path>
</symbol>
<symbol id="icon-instagram" viewBox="0 0 32 32">
<path fill="none" stroke="#02897a" style="stroke: var(--color1, #02897a)" stroke-linejoin="round" stroke-linecap="round" stroke-miterlimit="4" stroke-width="2.6667" d="M22.667 2.667h-13.333c-3.682 0-6.667 2.985-6.667 6.667v13.333c0 3.682 2.985 6.667 6.667 6.667h13.333c3.682 0 6.667-2.985 6.667-6.667v-13.333c0-3.682-2.985-6.667-6.667-6.667z"></path>
<path fill="none" stroke="#02897a" style="stroke: var(--color1, #02897a)" stroke-linejoin="round" stroke-linecap="round" stroke-miterlimit="4" stroke-width="2.6667" d="M21.333 15.16c0.165 1.11-0.025 2.243-0.542 3.239s-1.334 1.803-2.336 2.308c-1.002 0.504-2.138 0.68-3.245 0.502s-2.131-0.701-2.924-1.494-1.316-1.816-1.494-2.924c-0.178-1.107-0.003-2.243 0.502-3.245s1.312-1.82 2.307-2.336c0.996-0.517 2.129-0.706 3.239-0.542 1.132 0.168 2.18 0.695 2.989 1.504s1.337 1.857 1.505 2.989z"></path>
<path fill="none" stroke="#02897a" style="stroke: var(--color1, #02897a)" stroke-linejoin="round" stroke-linecap="round" stroke-miterlimit="4" stroke-width="2.6667" d="M23.333 8.667h0.013"></path>
</symbol>
<symbol id="icon-icon-2" viewBox="0 0 33 32">
<path fill="#4d8dff" style="fill: var(--color2, #4d8dff)" d="M12.667 1.333h6.726c6.259 0 11.333 5.074 11.333 11.333v6.667c0 6.259-5.074 11.333-11.333 11.333h-6.726c-6.259 0-11.333-5.074-11.333-11.333v-6.667c0-6.259 5.074-11.333 11.333-11.333z"></path>
<path fill="none" stroke="#fff" style="stroke: var(--color3, #fff)" stroke-linejoin="miter" stroke-linecap="butt" stroke-miterlimit="4" stroke-width="2.6667" d="M12.667 1.333h6.726c6.259 0 11.333 5.074 11.333 11.333v6.667c0 6.259-5.074 11.333-11.333 11.333h-6.726c-6.259 0-11.333-5.074-11.333-11.333v-6.667c0-6.259 5.074-11.333 11.333-11.333z"></path>
<path fill="none" stroke="#4d8dff" style="stroke: var(--color2, #4d8dff)" stroke-linejoin="miter" stroke-linecap="butt" stroke-miterlimit="4" stroke-width="2.6667" d="M12.667 1.333h6.726c6.259 0 11.333 5.074 11.333 11.333v6.667c0 6.259-5.074 11.333-11.333 11.333h-6.726c-6.259 0-11.333-5.074-11.333-11.333v-6.667c0-6.259 5.074-11.333 11.333-11.333z"></path>
<path fill="#fff" style="fill: var(--color3, #fff)" d="M23.601 11.19c-0.286-0.292-0.75-0.292-1.036 0l-8.779 8.949-3.375-3.44c-0.286-0.292-0.75-0.292-1.036 0s-0.286 0.765 0 1.056l3.893 3.968c0.286 0.292 0.75 0.291 1.036 0l9.297-9.478c0.286-0.292 0.286-0.765 0-1.056z"></path>
</symbol>
<symbol id="icon-icon-1" viewBox="0 0 33 32">
<path fill="#f03e3d" style="fill: var(--color4, #f03e3d)" d="M12.667 1.333h6.726c6.259 0 11.333 5.074 11.333 11.333v6.667c0 6.259-5.074 11.333-11.333 11.333h-6.726c-6.259 0-11.333-5.074-11.333-11.333v-6.667c0-6.259 5.074-11.333 11.333-11.333z"></path>
<path fill="none" stroke="#fff" style="stroke: var(--color3, #fff)" stroke-linejoin="miter" stroke-linecap="butt" stroke-miterlimit="4" stroke-width="2.6667" d="M12.667 1.333h6.726c6.259 0 11.333 5.074 11.333 11.333v6.667c0 6.259-5.074 11.333-11.333 11.333h-6.726c-6.259 0-11.333-5.074-11.333-11.333v-6.667c0-6.259 5.074-11.333 11.333-11.333z"></path>
<path fill="none" stroke="#f03e3d" style="stroke: var(--color4, #f03e3d)" stroke-linejoin="miter" stroke-linecap="butt" stroke-miterlimit="4" stroke-width="2.6667" d="M12.667 1.333h6.726c6.259 0 11.333 5.074 11.333 11.333v6.667c0 6.259-5.074 11.333-11.333 11.333h-6.726c-6.259 0-11.333-5.074-11.333-11.333v-6.667c0-6.259 5.074-11.333 11.333-11.333z"></path>
<path fill="#fff" style="fill: var(--color3, #fff)" d="M23.601 11.19c-0.286-0.292-0.75-0.292-1.036 0l-8.779 8.949-3.375-3.44c-0.286-0.292-0.75-0.292-1.036 0s-0.286 0.765 0 1.056l3.893 3.968c0.286 0.292 0.75 0.291 1.036 0l9.297-9.478c0.286-0.292 0.286-0.765 0-1.056z"></path>
</symbol>
<symbol id="icon-icon" viewBox="0 0 33 32">
<path fill="#f90" style="fill: var(--color5, #f90)" d="M12.667 1.333h6.726c6.259 0 11.333 5.074 11.333 11.333v6.667c0 6.259-5.074 11.333-11.333 11.333h-6.726c-6.259 0-11.333-5.074-11.333-11.333v-6.667c0-6.259 5.074-11.333 11.333-11.333z"></path>
<path fill="none" stroke="#fff" style="stroke: var(--color3, #fff)" stroke-linejoin="miter" stroke-linecap="butt" stroke-miterlimit="4" stroke-width="2.6667" d="M12.667 1.333h6.726c6.259 0 11.333 5.074 11.333 11.333v6.667c0 6.259-5.074 11.333-11.333 11.333h-6.726c-6.259 0-11.333-5.074-11.333-11.333v-6.667c0-6.259 5.074-11.333 11.333-11.333z"></path>
<path fill="none" stroke="#f90" style="stroke: var(--color5, #f90)" stroke-linejoin="miter" stroke-linecap="butt" stroke-miterlimit="4" stroke-width="2.6667" d="M12.667 1.333h6.726c6.259 0 11.333 5.074 11.333 11.333v6.667c0 6.259-5.074 11.333-11.333 11.333h-6.726c-6.259 0-11.333-5.074-11.333-11.333v-6.667c0-6.259 5.074-11.333 11.333-11.333z"></path>
<path fill="#fff" style="fill: var(--color3, #fff)" d="M23.601 11.19c-0.286-0.292-0.75-0.292-1.036 0l-8.779 8.949-3.375-3.44c-0.286-0.292-0.75-0.292-1.036 0s-0.286 0.765 0 1.056l3.893 3.968c0.286 0.292 0.75 0.291 1.036 0l9.297-9.478c0.286-0.292 0.286-0.765 0-1.056z"></path>
</symbol>
<symbol id="icon-icon-4" viewBox="0 0 32 32">
<path fill="#f03e3d" style="fill: var(--color4, #f03e3d)" d="M11.259 0h9.481c6.218 0 11.259 5.041 11.259 11.259v9.481c0 6.218-5.041 11.259-11.259 11.259h-9.481c-6.218 0-11.259-5.041-11.259-11.259v-9.481c0-6.218 5.041-11.259 11.259-11.259z"></path>
<path fill="#fff" style="fill: var(--color3, #fff)" d="M19.302 12.106h0.508c0.095 0 0.169-0.074 0.169-0.169v-0.339c0-0.095-0.074-0.169-0.169-0.169h-7.788c-0.095 0-0.169 0.074-0.169 0.169v0.339c0 0.095 0.074 0.169 0.169 0.169h0.508c0 1.958 0.936 3.376 1.973 4.063-1.037 0.688-1.973 2.106-1.973 4.064h-0.508c-0.095 0-0.169 0.074-0.169 0.169v0.339c0 0.095 0.074 0.169 0.169 0.169h7.788c0.095 0 0.169-0.074 0.169-0.169v-0.339c0-0.095-0.074-0.169-0.169-0.169h-0.508c0-1.958-0.936-3.376-1.974-4.064 1.037-0.688 1.974-2.106 1.974-4.063zM18.624 12.106c0 0.772-0.175 1.455-0.45 2.032h-4.519c-0.275-0.577-0.45-1.259-0.45-2.032h5.418zM18.323 18.54h-4.815c0.392-1.021 1.095-1.746 1.799-2.032h1.217c0.704 0.286 1.407 1.011 1.799 2.032z"></path>
</symbol>
<symbol id="icon-icon-3" viewBox="0 0 28 32">
<path fill="#740a76" style="fill: var(--color6, #740a76)" d="M9.806 0h8.258c5.416 0 9.806 4.391 9.806 9.806v8.258c0 5.416-4.39 9.806-9.806 9.806h-8.258c-5.416 0-9.806-4.39-9.806-9.806v-8.258c0-5.416 4.391-9.806 9.806-9.806z"></path>
<path fill="#fff" style="fill: var(--color3, #fff)" d="M13.935 17.622c0.074 0 0.147-0.028 0.203-0.083l2.871-2.765c0.041-0.041 1.055-0.968 1.055-2.074 0-1.35-0.825-2.157-2.203-2.157-0.806 0-1.562 0.636-1.926 0.995-0.364-0.359-1.12-0.995-1.926-0.995-1.378 0-2.203 0.806-2.203 2.157 0 1.106 1.014 2.032 1.051 2.065l2.876 2.774c0.055 0.055 0.129 0.083 0.203 0.083z"></path>
</symbol>
<symbol id="icon-icon-21" viewBox="0 0 28 32">
<path fill="#4d8dff" style="fill: var(--color2, #4d8dff)" d="M9.806 0h8.258c5.416 0 9.806 4.391 9.806 9.806v8.258c0 5.416-4.39 9.806-9.806 9.806h-8.258c-5.416 0-9.806-4.39-9.806-9.806v-8.258c0-5.416 4.391-9.806 9.806-9.806z"></path>
<path fill="#fff" style="fill: var(--color3, #fff)" d="M14.184 13.235l0.604 0.281 0.899-0.267v-0.627c0-1.065-0.899-1.917-1.972-1.917-1.069 0-1.972 0.848-1.972 1.903v2.857c0 0.263-0.212 0.47-0.47 0.47s-0.47-0.207-0.47-0.47v-1.207h-1.512c0 1.212 0 1.226 0 1.226 0 1.092 0.885 1.977 1.977 1.977 1.083 0 1.977-0.871 1.977-1.949v-2.82c0-0.258 0.212-0.47 0.47-0.47s0.47 0.212 0.47 0.47v0.544zM16.627 14.258v1.267c0 0.258-0.212 0.465-0.47 0.465s-0.47-0.207-0.47-0.465v-1.244l-0.899 0.267-0.604-0.281v1.235c0 1.083 0.889 1.959 1.977 1.959 1.092 0 1.977-0.885 1.977-1.977 0 0 0-0.014 0-1.226h-1.512z"></path>
</symbol>
<symbol id="icon-icon-11" viewBox="0 0 28 32">
<path fill="#02897a" style="fill: var(--color1, #02897a)" d="M9.806 0h8.258c5.416 0 9.806 4.391 9.806 9.806v8.258c0 5.416-4.39 9.806-9.806 9.806h-8.258c-5.416 0-9.806-4.39-9.806-9.806v-8.258c0-5.416 4.391-9.806 9.806-9.806z"></path>
<path fill="#fff" style="fill: var(--color3, #fff)" d="M16.576 14.76l-4.719-4.719c-0.055-0.060-0.129-0.088-0.207-0.088-0.037 0-0.078 0.009-0.111 0.023-0.111 0.046-0.184 0.152-0.184 0.272v6.931c0 0.12 0.074 0.226 0.184 0.272 0.032 0.014 0.074 0.023 0.111 0.023 0.078 0 0.152-0.032 0.207-0.088l1.438-1.438 0.88 2.083c0.065 0.147 0.235 0.221 0.387 0.157l0.816-0.346c0.148-0.065 0.221-0.235 0.157-0.387l-0.926-2.194h1.76c0.12 0 0.226-0.074 0.272-0.184 0.046-0.106 0.023-0.235-0.065-0.318z"></path>
</symbol>
<symbol id="icon-triangle" viewBox="0 0 28 32">
<path fill="#02897a" style="fill: var(--color1, #02897a)" d="M26.088 12.891c2.441 1.354 2.441 4.864 0 6.218l-21.155 11.739c-2.37 1.315-5.281-0.399-5.281-3.109v-23.477c0-2.71 2.911-4.424 5.281-3.109l21.155 11.739z"></path>
</symbol>
</defs>
</svg>
